<svg width="32" height="32" fill="none" xmlns="http://www.w3.org/2000/svg"><path d="M16.607 11.023c0-2.218-1.322-5.668-3.872-5.668-.8 0-1.66.4-2.153 1.016-.523.65-.675 1.478-.675 2.282 0 2.062 1.198 5.479 3.843 5.479.768 0 1.594-.367 2.09-.86.706-.711.767-1.694.767-2.249zm-1.66 8.1c-.246-.03-.399-.03-.706-.03-.277 0-1.938.06-3.227.494-.676.246-2.643.984-2.643 3.171 0 2.189 2.122 3.76 5.41 3.76 2.95 0 4.519-1.42 4.519-3.327 0-1.575-1.016-2.404-3.353-4.068z" fill="#fff"/><path d="M16.001 0C7.163 0 0 7.163 0 16.001 0 24.837 7.163 32 16.001 32 24.837 32 32 24.837 32 16.001 32 7.163 24.837 0 16.001 0zm-3.728 27.809c-4.458 0-6.608-2.124-6.608-4.406 0-1.107.553-2.677 2.366-3.756 1.905-1.17 4.488-1.324 5.871-1.42-.432-.553-.92-1.138-.92-2.092 0-.523.153-.832.305-1.2-.34.03-.675.06-.984.06-3.256 0-5.1-2.435-5.1-4.837 0-1.415.644-2.986 1.966-4.126 1.753-1.448 4.148-1.841 5.809-1.841h6.055l-1.998 1.256H17.13c.707.585 2.18 1.816 2.18 4.158 0 2.278-1.29 3.358-2.58 4.375-.401.4-.862.83-.862 1.51 0 .675.46 1.044.798 1.324l1.108.86c1.352 1.14 2.582 2.187 2.582 4.315 0 2.895-2.8 5.82-8.084 5.82zm13.263-12.185v3.1h-1.52v-3.1H20.94v-1.538h3.075v-3.079h1.52v3.079h3.092v1.538h-3.091z" fill="#fff"/></svg>